#!OML:ASF F:\VICON\USERDATA\INSTALL\rory3\rory3.ASF
:FULLY-SPECIFIED
:DEGREES
4209
root -1.91286 17.5413 0.704341 1.22637 2.09288 1.26626
lowerback 1.11582 -1.85407 -3.08196
upperback -2.53721 -2.45994 3.79131
thorax -2.9489 -1.10843 5.75081
lowerneck -21.63 -0.364873 -9.90718
upperneck 25.7628 2.18416 2.83621
head 11.9442 0.367827 3.08398
rclavicle 1.96797e-014 -3.18055e-015
rhumerus 17.09 -45.947 -0.489412
rradius 32.9917
rwrist 34.3026
rhand -28.5077 -4.68206
rfingers 7.12502
rthumb -1.87623 -34.6536
lclavicle 1.96797e-014 -3.18055e-015
lhumerus 10.7657 43.175 5.48755
lradius 29.6431
lwrist -13.8353
lhand -17.3031 22.947
lfingers 7.12502
lthumb 8.94288 52.7374
rfemur -8.00368 2.31107 11.2171
rtibia 32.818
rfoot -24.4878 -7.45442
rtoes 3.69075
lfemur -5.48147 -0.911217 -15.7055
ltibia 27.5474
lfoot -18.3427 2.28798
ltoes -20.0778
4210
root -1.91495 17.5462 0.682604 1.25593 2.16328 1.33331
lowerback 1.15801 -1.83591 -3.14542
upperback -2.51144 -2.43899 3.76754
thorax -2.9471 -1.09726 5.76243
lowerneck -21.7969 -0.40925 -10.0042
upperneck 25.6223 2.16989 2.84825
head 11.9228 0.358594 3.10083
rclavicle 1.19271e-014 -1.27222e-014
rhumerus 19.3008 -45.3883 -1.90621
rradius 33.0461
rwrist 34.1202
rhand -28.5165 -4.30391
rfingers 7.12502
rthumb -1.88476 -34.2753
lclavicle 1.19271e-014 -1.27222e-014
lhumerus 13.0857 43.0664 7.13877
lradius 29.5063
lwrist -14.1283
lhand -17.0947 23.4789
lfingers 7.12502
lthumb 9.144 53.2607
rfemur -8.09818 2.25414 11.142
rtibia 32.8298
rfoot -24.3876 -7.48547
rtoes 3.96591
lfemur -5.6018 -0.847901 -15.757
ltibia 27.5052
lfoot -18.2215 2.15529
ltoes -20.0937
4211
root -1.91522 17.5526 0.663157 1.29755 2.28727 1.3046
lowerback 1.10724 -1.83713 -3.12342
upperback -2.45128 -2.43955 3.78249
thorax -2.85615 -1.10157 5.76158
lowerneck -22.0621 -0.48583 -10.0431
upperneck 25.5867 2.12375 2.79227
head 11.9662 0.327251 3.08139
rclavicle -2.03257e-014 7.95139e-015
rhumerus 21.5557 -44.9414 -3.42431
rradius 33.0577
rwrist 34.1797
rhand -28.5998 -4.44343
rfingers 7.12502
rthumb -1.96523 -34.4141
lclavicle -2.03257e-014 7.95139e-015
lhumerus 15.5103 43.141 9.01593
lradius 29.3007
lwrist -14.6119
lhand -17.6232 23.3698
lfingers 7.12502
lthumb 8.63394 53.1732
rfemur -8.17202 2.14946 11.1674
rtibia 32.8189
rfoot -24.3817 -7.48648
rtoes 4.01984
lfemur -5.73439 -0.959453 -15.7268
ltibia 27.4853
lfoot -18.1045 2.15217
ltoes -19.879
4212
root -1.915 17.5563 0.643414 1.2833 2.31697 1.18805
lowerback 1.09116 -1.82342 -2.95695
upperback -2.40197 -2.41784 3.74666
thorax -2.80616 -1.09714 5.62612
lowerneck -22.1402 -0.505135 -9.89069
upperneck 25.4842 2.07578 2.69974
head 11.9479 0.311996 3.01178
rclavicle -1.70458e-014 1.59028e-015
rhumerus 23.6972 -44.4236 -5.03853
rradius 33.067
rwrist 34.3295
rhand -28.5796 -4.28637
rfingers 7.12502
rthumb -1.94566 -34.2572
lclavicle -1.70458e-014 1.59028e-015
lhumerus 17.9007 42.9914 10.7334
lradius 29.0822
lwrist -15.1712
lhand -18.6257 23.0433
lfingers 7.12502
lthumb 7.6664 52.8843
rfemur -8.21008 2.12165 11.2893
rtibia 32.7705
rfoot -24.3103 -7.47453
rtoes 4.47666
lfemur -5.81225 -0.992242 -15.6048
ltibia 27.5134
lfoot -18.049 2.14803
ltoes -19.9472
4213
root -1.91643 17.559 0.622102 1.28712 2.35058 1.06292
lowerback 1.1153 -1.83378 -2.78118
upperback -2.42786 -2.42831 3.68352
thorax -2.85447 -1.1053 5.46164
lowerneck -21.9957 -0.479819 -9.7593
upperneck 25.324 2.02792 2.75056
head 11.8595 0.316824 2.99565
rclavicle -2.28602e-014 3.97569e-014
rhumerus 25.8826 -43.8614 -6.81623
rradius 33.0185
rwrist 34.597
rhand -28.5341 -4.00557
rfingers 7.12502
rthumb -1.90173 -33.9768
lclavicle -2.28602e-014 3.97569e-014
lhumerus 20.1573 42.6949 12.2794
lradius 28.7718
lwrist -15.721
lhand -19.2522 22.0295
lfingers 7.12502
lthumb 7.06168 51.8917
rfemur -8.28246 2.11757 11.4298
rtibia 32.7128
rfoot -24.1969 -7.52377
rtoes 4.75057
lfemur -5.9287 -1.09891 -15.4721
ltibia 27.5514
lfoot -17.9749 2.20512
ltoes -19.8443
4214
root -1.92006 17.5626 0.600923 1.29865 2.44035 0.998681
lowerback 1.17872 -1.85733 -2.73963
upperback -2.4663 -2.45997 3.63894
thorax -2.92988 -1.12 5.3959
lowerneck -21.8998 -0.484106 -9.68507
upperneck 25.1811 1.96149 2.81511
head 11.7887 0.308502 2.99231
rclavicle 5.46658e-016 -1.11319e-014
rhumerus 27.8518 -43.0628 -8.37983
rradius 33.0339
rwrist 34.6
rhand -28.4455 -4.0063
rfingers 7.12502
rthumb -1.81622 -33.9783
lclavicle 5.46658e-016 -1.11319e-014
lhumerus 22.1978 42.101 13.7234
lradius 28.5302
lwrist -15.679
lhand -19.7836 21.2818
lfingers 7.12502
lthumb 6.54868 51.1606
rfemur -8.3319 2.07206 11.5179
rtibia 32.6626
rfoot -24.1104 -7.60966
rtoes 4.65466
lfemur -6.06053 -1.109 -15.3783
ltibia 27.5741
lfoot -17.9243 2.10497
ltoes -19.5492
4215
root -1.92527 17.5678 0.578442 1.28684 2.51915 0.946146
lowerback 1.26533 -1.87188 -2.75853
upperback -2.45732 -2.48152 3.62489
thorax -2.96688 -1.12973 5.39592
lowerneck -22.0067 -0.494607 -9.66923
upperneck 25.1539 1.92898 2.89646
head 11.7995 0.307386 3.01598
rclavicle 4.77083e-015 7.95139e-016
rhumerus 29.5121 -42.0945 -9.61577
rradius 33.185
rwrist 34.6195
rhand -28.2223 -4.29283
rfingers 7.12502
rthumb -1.60062 -34.2666
lclavicle 4.77083e-015 7.95139e-016
lhumerus 24.1181 41.4897 15.1965
lradius 28.4443
lwrist -15.6902
lhand -19.9377 21.6534
lfingers 7.12502
lthumb 6.39991 51.5367
rfemur -8.36748 2.08251 11.6034
rtibia 32.6304
rfoot -24.0929 -7.68931
rtoes 4.6749
lfemur -6.15064 -1.16192 -15.3007
ltibia 27.5614
lfoot -17.8177 2.10543
ltoes -19.4106
4216
root -1.92973 17.5744 0.553923 1.37933 2.57504 1.03322
lowerback 1.23263 -1.88251 -2.90836
upperback -2.44509 -2.50066 3.59571
thorax -2.92893 -1.13739 5.44929
lowerneck -22.2592 -0.553053 -9.72956
upperneck 25.2564 1.87994 2.96279
head 11.8908 0.284424 3.04929
rclavicle 1.3418e-015 5.56597e-015
rhumerus 31.5032 -41.4493 -11.205
rradius 33.1687
rwrist 35.3307
rhand -27.9401 -4.62513
rfingers 7.12502
rthumb -1.3281 -34.6007
lclavicle 1.3418e-015 5.56597e-015
lhumerus 26.1006 41.0925 16.8644
lradius 28.3104
lwrist -16.0974
lhand -19.5193 22.0939
lfingers 7.12502
lthumb 6.80385 51.9646
rfemur -8.53343 2.01108 11.5121
rtibia 32.6104
rfoot -24.0124 -7.76678
rtoes 4.5467
lfemur -6.33887 -1.32178 -15.404
ltibia 27.539
lfoot -17.6957 2.21734
ltoes -19.6932
4217
root -1.93442 17.5807 0.533396 1.45184 2.61285 1.1192
lowerback 1.14698 -1.86268 -3.05613
upperback -2.39235 -2.47879 3.55154
thorax -2.82452 -1.12731 5.48112
lowerneck -22.4866 -0.646672 -9.71943
upperneck 25.2901 1.77175 2.95912
head 11.957 0.234894 3.03272
rclavicle 8.79622e-015 -1.27222e-014
rhumerus 33.3706 -40.8318 -12.753
rradius 33.0672
rwrist 35.8934
rhand -27.9348 -4.85643
rfingers 7.12502
rthumb -1.32292 -34.8321
lclavicle 8.79622e-015 -1.27222e-014
lhumerus 27.9309 40.4454 18.3365
lradius 28.1517
lwrist -16.1967
lhand -19.381 22.0101
lfingers 7.12502
lthumb 6.93738 51.8764
rfemur -8.67054 1.90026 11.415
rtibia 32.6006
rfoot -23.919 -7.76177
rtoes 4.62542
lfemur -6.48001 -1.39616 -15.4976
ltibia 27.5102
lfoot -17.6256 2.26502
ltoes -19.7773
4218
root -1.93864 17.5862 0.512029 1.51438 2.59062 1.02327
lowerback 1.09657 -1.81928 -2.98567
upperback -2.34405 -2.41877 3.54138
thorax -2.75603 -1.10163 5.42522
lowerneck -22.6412 -0.710431 -9.77046
upperneck 25.2026 1.68091 3.07949
head 11.9572 0.208771 3.07191
rclavicle -1.00386e-014 -1.27222e-014
rhumerus 34.867 -39.948 -13.9314
rradius 33.0098
rwrist 35.9104
rhand -27.975 -5.01297
rfingers 7.12502
rthumb -1.36181 -34.9884
lclavicle -1.00386e-014 -1.27222e-014
lhumerus 29.7824 39.828 19.8923
lradius 27.9549
lwrist -16.4106
lhand -19.409 21.9867
lfingers 7.12502
lthumb 6.91031 51.8539
rfemur -8.83389 1.83494 11.5287
rtibia 32.5948
rfoot -23.776 -7.76073
rtoes 4.62716
lfemur -6.6272 -1.28742 -15.368
ltibia 27.4776
lfoot -17.5406 2.22864
ltoes -19.8261
4219
root -1.94427 17.5907 0.485777 1.57059 2.57212 0.913151
lowerback 1.14927 -1.78605 -2.8985
upperback -2.33492 -2.3731 3.52926
thorax -2.78525 -1.08021 5.36361
lowerneck -22.8388 -0.780373 -9.85928
upperneck 25.1722 1.59415 3.22496
head 11.9876 0.182179 3.12959
rclavicle 8.10048e-015 -1.90833e-014
rhumerus 36.132 -38.8592 -14.9109
rradius 32.9927
rwrist 35.6263
rhand -28.0359 -4.9307
rfingers 7.12502
rthumb -1.42056 -34.9057
lclavicle 8.10048e-015 -1.90833e-014
lhumerus 31.7265 39.3594 21.6935
lradius 27.7111
lwrist -17.1154
lhand -19.339 21.9024
lfingers 7.12502
lthumb 6.97795 51.7674
rfemur -9.00955 1.86398 11.6656
rtibia 32.5773
rfoot -23.658 -7.8534
rtoes 4.3438
lfemur -6.78985 -1.25562 -15.2216
ltibia 27.4571
lfoot -17.4168 2.22243
ltoes -19.7594
4220
root -1.94931 17.5948 0.459616 1.58681 2.62224 0.944595
lowerback 1.19374 -1.79776 -2.96783
upperback -2.28861 -2.39319 3.47596
thorax -2.75957 -1.09085 5.3481
lowerneck -23.1521 -0.828069 -9.89709
upperneck 25.2706 1.53923 3.35927
head 12.0888 0.168862 3.18484
rclavicle -2.78299e-015 1.03368e-014
rhumerus 37.6468 -37.9538 -16.306
rradius 32.899
rwrist 35.629
rhand -28.0046 -4.62752
rfingers 7.12502
rthumb -1.39035 -34.6027
lclavicle -2.78299e-015 1.03368e-014
lhumerus 33.5837 38.91 23.4738
lradius 27.4531
lwrist -17.9435
lhand -19.2202 21.4995
lfingers 7.12502
lthumb 7.09258 51.3607
rfemur -9.11504 1.81149 11.6431
rtibia 32.5641
rfoot -23.598 -7.94118
rtoes 3.96146
lfemur -6.90634 -1.36995 -15.2482
ltibia 27.4383
lfoot -17.3156 2.28501
ltoes -19.6798
4221
root -1.95362 17.6014 0.437012 1.62148 2.67348 0.980495
lowerback 1.1719 -1.82004 -3.01137
upperback -2.25837 -2.42618 3.39215
thorax -2.71385 -1.10907 5.28403
lowerneck -23.2678 -0.865824 -9.84935
upperneck 25.3015 1.45473 3.44835
head 12.1285 0.147012 3.19953
rclavicle -2.9271e-014 5.56597e-015
rhumerus 39.3303 -37.2015 -18.1217
rradius 32.7756
rwrist 35.9874
rhand -27.8804 -4.23851
rfingers 7.12502
rthumb -1.27041 -34.2145
lclavicle -2.9271e-014 5.56597e-015
lhumerus 35.161 38.2024 24.9327
lradius 27.2819
lwrist -18.4337
lhand -19.1073 21.1643
lfingers 7.12502
lthumb 7.20157 51.0218
rfemur -9.23615 1.75836 11.616
rtibia 32.5643
rfoot -23.499 -8.05341
rtoes 3.43788
lfemur -7.02195 -1.49074 -15.2896
ltibia 27.4123
lfoot -17.2011 2.39237
ltoes -19.883
4222
root -1.95876 17.6075 0.414571 1.60507 2.71823 1.02969
lowerback 1.23739 -1.81838 -3.08926
upperback -2.23983 -2.42946 3.30528
thorax -2.73175 -1.10983 5.23951
lowerneck -23.1771 -0.923324 -9.81998
upperneck 25.1907 1.31363 3.56761
head 12.0763 0.107052 3.21296
rclavicle 2.34566e-014 -1.03368e-014
rhumerus 40.6049 -36.2051 -19.4922
rradius 32.707
rwrist 36.0361
rhand -27.8696 -4.26731
rfingers 7.12502
rthumb -1.26001 -34.2433
lclavicle 2.34566e-014 -1.03368e-014
lhumerus 36.6686 37.4108 26.4349
lradius 27.1419
lwrist -18.9318
lhand -18.862 20.9528
lfingers 7.12502
lthumb 7.43831 50.802
rfemur -9.30249 1.71443 11.5721
rtibia 32.573
rfoot -23.3995 -8.07689
rtoes 3.62977
lfemur -7.07924 -1.54129 -15.3414
ltibia 27.3872
lfoot -17.0777 2.45351
ltoes -20.1554
4223
root -1.96305 17.6103 0.388668 1.64428 2.75339 1.04741
lowerback 1.24826 -1.83422 -3.11616
upperback -2.20898 -2.45366 3.23032
thorax -2.70519 -1.12342 5.17646
lowerneck -23.1273 -0.949339 -9.77554
upperneck 25 1.23606 3.62032
head 11.9971 0.0903273 3.20712
rclavicle 4.24902e-014 -9.54166e-015
rhumerus 41.7353 -35.0936 -20.7367
rradius 32.6855
rwrist 35.9579
rhand -27.832 -4.3641
rfingers 7.12502
rthumb -1.2237 -34.3403
lclavicle 4.24902e-014 -9.54166e-015
lhumerus 37.9324 36.5155 27.6978
lradius 27.0299
lwrist -19.2751
lhand -18.6042 21.0099
lfingers 7.12502
lthumb 7.68723 50.8501
rfemur -9.42844 1.68708 11.5554
rtibia 32.5651
rfoot -23.3333 -8.0833
rtoes 3.98518
lfemur -7.2247 -1.56008 -15.3611
ltibia 27.3932
lfoot -16.9508 2.5367
ltoes -20.5417
